<svg width="152" height="34" viewBox="0 0 152 34" fill="none" xmlns="http://www.w3.org/2000/svg">
<path fill-rule="evenodd" clip-rule="evenodd" d="M25.1719 0H25.1716V6.6141H25.1719V0ZM25.1716 19.8416V19.8423H18.172H6.99952C3.13379 19.8423 0 16.7085 0 12.8428V6.99952C0 3.13379 3.13379 0 6.99952 0H18.172H18.5652V6.6141H25.1716V6.99952V12.8428V13.2275H25.1719V19.8416H25.1716ZM25.1716 19.8416V13.2275H18.5652V19.8416H25.1716ZM18.172 6.99952H6.99952V12.8428H18.172V6.99952Z" fill="#484848"/>
<path fill-rule="evenodd" clip-rule="evenodd" d="M11.9572 6.61523H11.9573V13.2293H11.9572V6.61523ZM11.9573 26.4569V26.4575H18.9569H30.1294C33.9951 26.4575 37.1289 23.3237 37.1289 19.458V13.6148C37.1289 9.74902 33.9951 6.61523 30.1294 6.61523H18.9569H18.5639V13.2293H11.9573V13.6148V19.458V19.8428H11.957V26.4569H11.9573ZM11.9573 26.4569V19.8428H18.5637V26.4569H11.9573ZM18.9569 13.6148H30.1294V19.458H18.9569V13.6148Z" fill="#484848"/>
<rect x="11.957" y="26.459" width="6.60671" height="6.6141" rx="0.349976" fill="#484848"/>
<path d="M46.085 22.1491C45.3063 22.1491 44.6023 22.0158 43.973 21.7491C43.3543 21.4824 42.8637 21.0984 42.501 20.5971C42.1383 20.0958 41.9517 19.5038 41.941 18.8211H44.341C44.373 19.2798 44.533 19.6424 44.821 19.9091C45.1197 20.1758 45.525 20.3091 46.037 20.3091C46.5597 20.3091 46.9703 20.1864 47.269 19.9411C47.5677 19.6851 47.717 19.3544 47.717 18.9491C47.717 18.6184 47.6157 18.3464 47.413 18.1331C47.2103 17.9198 46.9543 17.7544 46.645 17.6371C46.3463 17.5091 45.9303 17.3704 45.397 17.2211C44.6717 17.0078 44.0797 16.7998 43.621 16.5971C43.173 16.3838 42.7837 16.0691 42.453 15.6531C42.133 15.2264 41.973 14.6611 41.973 13.9571C41.973 13.2958 42.1383 12.7198 42.469 12.2291C42.7997 11.7384 43.2637 11.3651 43.861 11.1091C44.4583 10.8424 45.141 10.7091 45.909 10.7091C47.061 10.7091 47.9943 10.9918 48.709 11.5571C49.4343 12.1118 49.8343 12.8904 49.909 13.8931H47.445C47.4237 13.5091 47.2583 13.1944 46.949 12.9491C46.6503 12.6931 46.2503 12.5651 45.749 12.5651C45.3117 12.5651 44.9597 12.6771 44.693 12.9011C44.437 13.1251 44.309 13.4504 44.309 13.8771C44.309 14.1758 44.405 14.4264 44.597 14.6291C44.7997 14.8211 45.045 14.9811 45.333 15.1091C45.6317 15.2264 46.0477 15.3651 46.581 15.5251C47.3063 15.7384 47.8983 15.9518 48.357 16.1651C48.8157 16.3784 49.2103 16.6984 49.541 17.1251C49.8717 17.5518 50.037 18.1118 50.037 18.8051C50.037 19.4024 49.8823 19.9571 49.573 20.4691C49.2637 20.9811 48.8103 21.3918 48.213 21.7011C47.6157 21.9998 46.9063 22.1491 46.085 22.1491ZM54.219 14.4531C54.507 14.0478 54.9017 13.7118 55.403 13.4451C55.915 13.1678 56.4963 13.0291 57.147 13.0291C57.9043 13.0291 58.587 13.2158 59.195 13.5891C59.8137 13.9624 60.299 14.4958 60.651 15.1891C61.0137 15.8718 61.195 16.6664 61.195 17.5731C61.195 18.4798 61.0137 19.2851 60.651 19.9891C60.299 20.6824 59.8137 21.2211 59.195 21.6051C58.587 21.9891 57.9043 22.1811 57.147 22.1811C56.4963 22.1811 55.9203 22.0478 55.419 21.7811C54.9283 21.5144 54.5283 21.1784 54.219 20.7731V26.2611H51.979V13.1731H54.219V14.4531ZM58.907 17.5731C58.907 17.0398 58.795 16.5811 58.571 16.1971C58.3577 15.8024 58.0697 15.5038 57.707 15.3011C57.355 15.0984 56.971 14.9971 56.555 14.9971C56.1497 14.9971 55.7657 15.1038 55.403 15.3171C55.051 15.5198 54.763 15.8184 54.539 16.2131C54.3257 16.6078 54.219 17.0718 54.219 17.6051C54.219 18.1384 54.3257 18.6024 54.539 18.9971C54.763 19.3918 55.051 19.6958 55.403 19.9091C55.7657 20.1118 56.1497 20.2131 56.555 20.2131C56.971 20.2131 57.355 20.1064 57.707 19.8931C58.0697 19.6798 58.3577 19.3758 58.571 18.9811C58.795 18.5864 58.907 18.1171 58.907 17.5731ZM71.0628 17.4131C71.0628 17.7331 71.0414 18.0211 70.9988 18.2771H64.5188C64.5721 18.9171 64.7961 19.4184 65.1908 19.7811C65.5854 20.1438 66.0708 20.3251 66.6468 20.3251C67.4788 20.3251 68.0708 19.9678 68.4228 19.2531H70.8388C70.5828 20.1064 70.0921 20.8104 69.3668 21.3651C68.6414 21.9091 67.7508 22.1811 66.6948 22.1811C65.8414 22.1811 65.0734 21.9944 64.3908 21.6211C63.7188 21.2371 63.1908 20.6984 62.8068 20.0051C62.4334 19.3118 62.2467 18.5118 62.2467 17.6051C62.2467 16.6878 62.4334 15.8824 62.8068 15.1891C63.1801 14.4958 63.7028 13.9624 64.3748 13.5891C65.0468 13.2158 65.8201 13.0291 66.6948 13.0291C67.5374 13.0291 68.2894 13.2104 68.9508 13.5731C69.6228 13.9358 70.1401 14.4531 70.5028 15.1251C70.8761 15.7864 71.0628 16.5491 71.0628 17.4131ZM68.7428 16.7731C68.7321 16.1971 68.5241 15.7384 68.1188 15.3971C67.7134 15.0451 67.2174 14.8691 66.6308 14.8691C66.0761 14.8691 65.6068 15.0398 65.2228 15.3811C64.8494 15.7118 64.6201 16.1758 64.5348 16.7731H68.7428ZM72.1217 17.6051C72.1217 16.6878 72.3084 15.8878 72.6818 15.2051C73.0551 14.5118 73.5724 13.9784 74.2338 13.6051C74.8951 13.2211 75.6524 13.0291 76.5058 13.0291C77.6044 13.0291 78.5111 13.3064 79.2258 13.8611C79.9511 14.4051 80.4364 15.1731 80.6818 16.1651H78.2658C78.1378 15.7811 77.9191 15.4824 77.6098 15.2691C77.3111 15.0451 76.9378 14.9331 76.4898 14.9331C75.8498 14.9331 75.3431 15.1678 74.9698 15.6371C74.5964 16.0958 74.4098 16.7518 74.4098 17.6051C74.4098 18.4478 74.5964 19.1038 74.9698 19.5731C75.3431 20.0318 75.8498 20.2611 76.4898 20.2611C77.3964 20.2611 77.9884 19.8558 78.2658 19.0451H80.6818C80.4364 20.0051 79.9511 20.7678 79.2258 21.3331C78.5004 21.8984 77.5938 22.1811 76.5058 22.1811C75.6524 22.1811 74.8951 21.9944 74.2338 21.6211C73.5724 21.2371 73.0551 20.7038 72.6818 20.0211C72.3084 19.3278 72.1217 18.5224 72.1217 17.6051ZM83.4588 12.1171C83.0641 12.1171 82.7334 11.9944 82.4668 11.7491C82.2108 11.4931 82.0828 11.1784 82.0828 10.8051C82.0828 10.4318 82.2108 10.1224 82.4668 9.87711C82.7334 9.62111 83.0641 9.49311 83.4588 9.49311C83.8534 9.49311 84.1788 9.62111 84.4348 9.87711C84.7014 10.1224 84.8348 10.4318 84.8348 10.8051C84.8348 11.1784 84.7014 11.4931 84.4348 11.7491C84.1788 11.9944 83.8534 12.1171 83.4588 12.1171ZM84.5628 13.1731V22.0371H82.3228V13.1731H84.5628ZM86.1999 17.5731C86.1999 16.6771 86.3759 15.8824 86.7279 15.1891C87.0905 14.4958 87.5759 13.9624 88.1839 13.5891C88.8025 13.2158 89.4905 13.0291 90.2479 13.0291C90.9092 13.0291 91.4852 13.1624 91.9759 13.4291C92.4772 13.6958 92.8772 14.0318 93.1759 14.4371V13.1731H95.4319V22.0371H93.1759V20.7411C92.8879 21.1571 92.4879 21.5038 91.9759 21.7811C91.4745 22.0478 90.8932 22.1811 90.2319 22.1811C89.4852 22.1811 88.8025 21.9891 88.1839 21.6051C87.5759 21.2211 87.0905 20.6824 86.7279 19.9891C86.3759 19.2851 86.1999 18.4798 86.1999 17.5731ZM93.1759 17.6051C93.1759 17.0611 93.0692 16.5971 92.8559 16.2131C92.6425 15.8184 92.3545 15.5198 91.9919 15.3171C91.6292 15.1038 91.2399 14.9971 90.8239 14.9971C90.4079 14.9971 90.0239 15.0984 89.6719 15.3011C89.3199 15.5038 89.0319 15.8024 88.8079 16.1971C88.5945 16.5811 88.4879 17.0398 88.4879 17.5731C88.4879 18.1064 88.5945 18.5758 88.8079 18.9811C89.0319 19.3758 89.3199 19.6798 89.6719 19.8931C90.0345 20.1064 90.4185 20.2131 90.8239 20.2131C91.2399 20.2131 91.6292 20.1118 91.9919 19.9091C92.3545 19.6958 92.6425 19.3971 92.8559 19.0131C93.0692 18.6184 93.1759 18.1491 93.1759 17.6051ZM99.8596 10.1971V22.0371H97.6196V10.1971H99.8596ZM113.485 10.8691V12.6771H110.509V22.0371H108.269V12.6771H105.293V10.8691H113.485ZM123.36 17.4131C123.36 17.7331 123.338 18.0211 123.296 18.2771H116.816C116.869 18.9171 117.093 19.4184 117.488 19.7811C117.882 20.1438 118.368 20.3251 118.944 20.3251C119.776 20.3251 120.368 19.9678 120.72 19.2531H123.136C122.88 20.1064 122.389 20.8104 121.664 21.3651C120.938 21.9091 120.048 22.1811 118.992 22.1811C118.138 22.1811 117.37 21.9944 116.688 21.6211C116.016 21.2371 115.488 20.6984 115.104 20.0051C114.73 19.3118 114.544 18.5118 114.544 17.6051C114.544 16.6878 114.73 15.8824 115.104 15.1891C115.477 14.4958 116 13.9624 116.672 13.5891C117.344 13.2158 118.117 13.0291 118.992 13.0291C119.834 13.0291 120.586 13.2104 121.248 13.5731C121.92 13.9358 122.437 14.4531 122.8 15.1251C123.173 15.7864 123.36 16.5491 123.36 17.4131ZM121.04 16.7731C121.029 16.1971 120.821 15.7384 120.416 15.3971C120.01 15.0451 119.514 14.8691 118.928 14.8691C118.373 14.8691 117.904 15.0398 117.52 15.3811C117.146 15.7118 116.917 16.1758 116.832 16.7731H121.04ZM124.419 17.5731C124.419 16.6771 124.595 15.8824 124.947 15.1891C125.309 14.4958 125.795 13.9624 126.403 13.5891C127.021 13.2158 127.709 13.0291 128.467 13.0291C129.128 13.0291 129.704 13.1624 130.195 13.4291C130.696 13.6958 131.096 14.0318 131.395 14.4371V13.1731H133.651V22.0371H131.395V20.7411C131.107 21.1571 130.707 21.5038 130.195 21.7811C129.693 22.0478 129.112 22.1811 128.451 22.1811C127.704 22.1811 127.021 21.9891 126.403 21.6051C125.795 21.2211 125.309 20.6824 124.947 19.9891C124.595 19.2851 124.419 18.4798 124.419 17.5731ZM131.395 17.6051C131.395 17.0611 131.288 16.5971 131.075 16.2131C130.861 15.8184 130.573 15.5198 130.211 15.3171C129.848 15.1038 129.459 14.9971 129.043 14.9971C128.627 14.9971 128.243 15.0984 127.891 15.3011C127.539 15.5038 127.251 15.8024 127.027 16.1971C126.813 16.5811 126.707 17.0398 126.707 17.5731C126.707 18.1064 126.813 18.5758 127.027 18.9811C127.251 19.3758 127.539 19.6798 127.891 19.8931C128.253 20.1064 128.637 20.2131 129.043 20.2131C129.459 20.2131 129.848 20.1118 130.211 19.9091C130.573 19.6958 130.861 19.3971 131.075 19.0131C131.288 18.6184 131.395 18.1491 131.395 17.6051ZM146.846 13.0451C147.934 13.0451 148.809 13.3811 149.47 14.0531C150.142 14.7144 150.478 15.6424 150.478 16.8371V22.0371H148.238V17.1411C148.238 16.4478 148.062 15.9198 147.71 15.5571C147.358 15.1838 146.878 14.9971 146.27 14.9971C145.662 14.9971 145.177 15.1838 144.814 15.5571C144.462 15.9198 144.286 16.4478 144.286 17.1411V22.0371H142.046V17.1411C142.046 16.4478 141.87 15.9198 141.518 15.5571C141.166 15.1838 140.686 14.9971 140.078 14.9971C139.46 14.9971 138.969 15.1838 138.606 15.5571C138.254 15.9198 138.078 16.4478 138.078 17.1411V22.0371H135.838V13.1731H138.078V14.2451C138.366 13.8718 138.734 13.5784 139.182 13.3651C139.641 13.1518 140.142 13.0451 140.686 13.0451C141.38 13.0451 141.998 13.1944 142.542 13.4931C143.086 13.7811 143.508 14.1971 143.806 14.7411C144.094 14.2291 144.51 13.8184 145.054 13.5091C145.609 13.1998 146.206 13.0451 146.846 13.0451Z" fill="#7C7C7C"/>
</svg>
