<svg width="556" height="744" viewBox="0 0 556 744" fill="none" xmlns="http://www.w3.org/2000/svg">
<path d="M482.129 556C522.927 556 556 522.927 556 482.129V261.871C556 221.073 522.927 188 482.129 188H376L376 556H482.129Z" fill="#D9D9D9"/>
<path d="M180 368L180 98C180 48.2944 139.706 8 90 8C40.2944 8 0 48.2944 0 98L0 268C0 323.228 44.7715 368 100 368H180Z" fill="#D9D9D9"/>
<path d="M368 476C368 420.772 323.228 376 268 376H90C40.2944 376 0 416.294 0 466C0 515.706 40.2944 556 90 556H368V476Z" fill="#D9D9D9"/>
<path d="M268 368C323.228 368 368 323.228 368 268V188H288C232.772 188 188 232.772 188 288V368H268Z" fill="#D9D9D9"/>
<path d="M368 180V90C368 40.2944 327.706 0 278 0C228.294 0 188 40.2944 188 90C188 139.706 228.294 180 278 180H368Z" fill="#D9D9D9"/>
<path d="M466 180C515.706 180 556 139.706 556 90C556 40.2944 515.706 0 466 0C416.294 0 376 40.2944 376 90V180L466 180Z" fill="#D9D9D9"/>
<path d="M376 654C376 703.706 416.294 744 466 744C515.706 744 556 703.706 556 654C556 604.294 515.706 564 466 564H376V654Z" fill="#D9D9D9"/>
<path d="M90 564C40.2944 564 0 604.294 0 654C0 703.706 40.2944 744 90 744C139.706 744 180 703.706 180 654V564H90Z" fill="#D9D9D9"/>
<path d="M188 564V654C188 703.706 228.294 744 278 744C327.706 744 368 703.706 368 654V564H188Z" fill="#D9D9D9"/>
<circle cx="90" cy="466" r="85" transform="rotate(-90 90 466)" fill="#439581"/>
<circle cx="90" cy="466" r="84.5" transform="rotate(-90 90 466)" stroke="#B6B6B6" stroke-opacity="0.6"/>
<circle cx="90" cy="98" r="84.5" transform="rotate(-90 90 98)" fill="#8A4395" stroke="#B6B6B6"/>
<circle cx="466" cy="90" r="84.5" transform="rotate(-90 466 90)" fill="#3887BE" stroke="#B6B6B6"/>
</svg>
