<svg width="63" height="49" viewBox="0 0 63 49" fill="none" xmlns="http://www.w3.org/2000/svg">
<g filter="url(#filter0_d_5004_16457)">
<line y1="-0.234062" x2="43.9838" y2="-0.234062" transform="matrix(0.00475791 0.999989 -0.999986 0.00527191 2 1)" stroke="#717171" stroke-width="0.468125"/>
<line y1="-0.234062" x2="43.9838" y2="-0.234062" transform="matrix(0.00629438 0.99998 -0.999976 0.00697436 59.5781 1.00049)" stroke="#717171" stroke-width="0.468125"/>
<line y1="-0.234062" x2="26.8949" y2="-0.234062" transform="matrix(0.68491 -0.728627 0.692571 0.721349 5.39062 43.7803)" stroke="#717171" stroke-width="0.468125"/>
<line y1="-0.234062" x2="17.5939" y2="-0.234062" transform="matrix(0.649852 0.760061 -0.725953 0.687745 22.8594 23.2837)" stroke="#717171" stroke-width="0.468125"/>
<line y1="-0.234062" x2="21.1328" y2="-0.234062" transform="matrix(0.752018 -0.659143 0.620401 0.784285 28.8867 29.5801)" stroke="#717171" stroke-width="0.468125"/>
<line y1="-0.234062" x2="23.3617" y2="-0.234062" transform="matrix(0.598167 0.801372 -0.77059 0.637331 43.1836 15.2603)" stroke="#717171" stroke-width="0.468125"/>
<line x1="2" y1="0.766426" x2="60.7029" y2="0.766426" stroke="#717171" stroke-width="0.468125"/>
<line x1="3.12891" y1="44.7342" x2="60.7029" y2="44.7342" stroke="#717171" stroke-width="0.468125"/>
<path d="M20.9573 12.8835C20.9573 16.0471 18.5238 18.591 15.5469 18.591C12.5699 18.591 10.1364 16.0471 10.1364 12.8835C10.1364 9.71984 12.5699 7.17596 15.5469 7.17596C18.5238 7.17596 20.9573 9.71984 20.9573 12.8835Z" stroke="#717171" stroke-width="0.468125"/>
</g>
<defs>
<filter id="filter0_d_5004_16457" x="0.127501" y="0.532227" width="62.4481" height="48.1962" filterUnits="userSpaceOnUse" color-interpolation-filters="sRGB">
<feFlood flood-opacity="0" result="BackgroundImageFix"/>
<feColorMatrix in="SourceAlpha" type="matrix" values="0 0 0 0 0 0 0 0 0 0 0 0 0 0 0 0 0 0 127 0" result="hardAlpha"/>
<feOffset dy="1.8725"/>
<feGaussianBlur stdDeviation="0.93625"/>
<feComposite in2="hardAlpha" operator="out"/>
<feColorMatrix type="matrix" values="0 0 0 0 0 0 0 0 0 0 0 0 0 0 0 0 0 0 0.25 0"/>
<feBlend mode="normal" in2="BackgroundImageFix" result="effect1_dropShadow_5004_16457"/>
<feBlend mode="normal" in="SourceGraphic" in2="effect1_dropShadow_5004_16457" result="shape"/>
</filter>
</defs>
</svg>
